<svg xmlns="http://www.w3.org/2000/svg" viewBox="0 0 800 450">
  <defs>
    <linearGradient id="bg" x1="0%" y1="0%" x2="100%" y2="100%">
      <stop offset="0%" stop-color="#7c3aed"/>
      <stop offset="100%" stop-color="#8b5cf6"/>
    </linearGradient>
  </defs>
  <rect width="100%" height="100%" fill="url(#bg)"/>
  <rect x="120" y="150" width="250" height="120" rx="12" fill="white" opacity="0.18"/>
  <polygon points="170,270 200,270 180,300" fill="white" opacity="0.18"/>
  <rect x="430" y="180" width="250" height="100" rx="12" fill="white" opacity="0.15"/>
  <polygon points="630,280 660,280 640,310" fill="white" opacity="0.15"/>
  <path d="M370 200 L420 200" stroke="white" stroke-width="3" opacity="0.15"/>
  <path d="M370 220 L420 220" stroke="white" stroke-width="2" opacity="0.12"/>
  <path d="M370 240 L400 240" stroke="white" stroke-width="2" opacity="0.1"/>
  <path d="M680 200 L720 200 L720 230" stroke="white" stroke-width="2" fill="none" opacity="0.15"/>
  <path d="M680 220 L710 220" stroke="white" stroke-width="2" opacity="0.12"/>
  <circle cx="400" cy="380" r="30" fill="white" opacity="0.08"/>
  <circle cx="450" cy="370" r="20" fill="white" opacity="0.06"/>
  <circle cx="350" cy="390" r="15" fill="white" opacity="0.05"/>
  <path d="M100 80 L130 100 L160 80 L190 100 L220 80" stroke="white" stroke-width="2" fill="none" opacity="0.1"/>
  <path d="M580 350 L610 370 L640 350 L670 370 L700 350" stroke="white" stroke-width="2" fill="none" opacity="0.1"/>
</svg>